<svg xmlns="http://www.w3.org/2000/svg" width="42.555" height="42.555" viewBox="0 0 42.555 42.555"><defs><style>.a{fill:#ff6510;}.b{fill:none;stroke:#fc6320;stroke-miterlimit:10;stroke-width:2px;}</style></defs><g transform="translate(1 1)"><g transform="translate(7.191 13.135)"><path class="a" d="M1557.687,547.947c.968.249,1.023,1.438.968,2.129l.912.056c.111-1.659-.5-2.765-1.659-3.069-2.987-.747-3.706-1.687-3.871-2.074a2.617,2.617,0,0,0,.581-.526c1.41-1.576,1.162-4.286,1.134-4.535-.138-3.1-2.406-3.843-3.733-3.788-1.328-.055-3.6.692-3.733,3.788-.028.249-.248,2.959,1.134,4.535a3.488,3.488,0,0,0,.691.581c-.221.388-1.023,1.3-3.843,2.019-1.189.3-1.77,1.41-1.659,3.069l.912-.056c-.055-.691.027-1.88.968-2.1,3.1-.775,4.121-1.853,4.452-2.544a3.992,3.992,0,0,0,1.023.138h.11a3.766,3.766,0,0,0,1.134-.166C1553.539,546.067,1554.535,547.173,1557.687,547.947Zm-5.641-3.29h-.027a2.441,2.441,0,0,1-1.908-.8c-1.161-1.3-.912-3.816-.912-3.843v-.028c.138-2.71,2.129-2.932,2.71-2.932h.111c.442-.028,2.682.028,2.821,2.932v.028c0,.028.248,2.517-.912,3.843A2.435,2.435,0,0,1,1552.046,544.657Zm9.374.718a4.865,4.865,0,0,0,.857-3.373,2.848,2.848,0,1,0-5.7,0,4.817,4.817,0,0,0,.857,3.373,2.43,2.43,0,0,0,1.936.83h.11a3.037,3.037,0,0,0,.747-.111c.3.526,1.107,1.3,3.291,1.825.608.166.636.94.608,1.41l.912.056c.083-1.272-.387-2.129-1.3-2.378-1.935-.47-2.516-1.078-2.682-1.355A1.568,1.568,0,0,0,1561.42,545.376Zm-1.991-.083h0a1.574,1.574,0,0,1-1.3-.526,4.192,4.192,0,0,1-.636-2.682v-.028c.083-1.88,1.438-2.018,1.852-2.018h.083c.3,0,1.825.028,1.908,2.018v.028a4.164,4.164,0,0,1-.637,2.682A1.552,1.552,0,0,1,1559.429,545.293Zm-19.19,1.742c-.912.222-1.383,1.107-1.3,2.351l.912-.056c-.028-.47,0-1.244.608-1.41,2.212-.553,3.014-1.3,3.29-1.825a3.042,3.042,0,0,0,.747.111h.083a2.619,2.619,0,0,0,1.936-.83,4.865,4.865,0,0,0,.857-3.373,2.848,2.848,0,1,0-5.7,0,4.81,4.81,0,0,0,.857,3.373,1.362,1.362,0,0,0,.36.332C1542.755,545.956,1542.174,546.565,1540.239,547.035Zm2.378-4.977v-.028c.083-1.88,1.438-2.018,1.853-2.018h.083c.3,0,1.825.028,1.907,2.018v.028a4.167,4.167,0,0,1-.636,2.682,1.611,1.611,0,0,1-1.3.526h0a1.648,1.648,0,0,1-1.3-.526A4.3,4.3,0,0,1,1542.617,542.057Z" transform="translate(-1538.93 -536.137)"/></g><circle class="b" cx="20.277" cy="20.277" r="20.277"/></g></svg>