<svg xmlns="http://www.w3.org/2000/svg" width="54.332" height="54.31" viewBox="0 0 54.332 54.31"><defs><style>.a{fill:#005699;}</style></defs><g transform="translate(-1088.036 -672.313)"><g transform="translate(1088.036 672.313)"><path class="a" d="M1552.2,946.311h0a3.813,3.813,0,1,0-2.677,1.1A3.522,3.522,0,0,0,1552.2,946.311Zm-4.394-2.677a1.975,1.975,0,0,1,.481-1.236,1.655,1.655,0,0,1,1.236-.481,1.975,1.975,0,0,1,1.235.481,1.558,1.558,0,0,1,.481,1.236,1.975,1.975,0,0,1-.481,1.236h0a1.79,1.79,0,0,1-2.4,0A1.72,1.72,0,0,1,1547.8,943.634Z" transform="translate(-1526.358 -931.275)"/><path class="a" d="M1535.821,952.251a.993.993,0,0,0-1.3.618l-12.977,32.957a1.047,1.047,0,0,0,.206,1.1,1.035,1.035,0,0,0,.755.274.513.513,0,0,0,.343-.069l33.026-12.977a1.049,1.049,0,0,0,.618-1.3A33.446,33.446,0,0,0,1535.821,952.251Zm-11.466,32.133,11.741-29.867a31.444,31.444,0,0,1,18.127,18.126Z" transform="translate(-1519.664 -934.674)"/><path class="a" d="M1556.361,928.967a21.888,21.888,0,0,1,.137,19.705l1.854.893a24.068,24.068,0,0,0-.137-21.559Z" transform="translate(-1529.287 -928.006)"/><path class="a" d="M1540.391,944.327a12.465,12.465,0,0,0-2.2-10.917l-1.648,1.3a10.484,10.484,0,0,1,1.853,9.063Z" transform="translate(-1523.822 -929.496)"/><path class="a" d="M1564.23,962.045l.892,1.854a21.89,21.89,0,0,1,19.706.138l.961-1.854A24.07,24.07,0,0,0,1564.23,962.045Z" transform="translate(-1531.457 -936.71)"/><path class="a" d="M1573.616,980.08l.549,1.991a10.024,10.024,0,0,1,9.063,1.854l1.3-1.648A12.419,12.419,0,0,0,1573.616,980.08Z" transform="translate(-1534.046 -942.248)"/><path class="a" d="M1585.033,934.689a1.056,1.056,0,0,0-.892-.618h-2.747l-1.51-2.266a1.115,1.115,0,0,0-.962-.481.954.954,0,0,0-.823.687l-.962,2.609-2.677.755a1.146,1.146,0,0,0-.755.824,1.026,1.026,0,0,0,.412,1.03l2.128,1.648-.206,2.747a1.1,1.1,0,0,0,.55.961,1.268,1.268,0,0,0,.48.138,1.107,1.107,0,0,0,.618-.206l2.334-1.58,2.541.962a.959.959,0,0,0,1.03-.206.988.988,0,0,0,.275-1.03l-.755-2.677,1.785-2.2A1.262,1.262,0,0,0,1585.033,934.689Zm-4.05,3.3.343,1.235-1.167-.412a.966.966,0,0,0-.961.138l-.962.687.069-1.167a1.106,1.106,0,0,0-.412-.892l-.961-.687,1.236-.343a1.034,1.034,0,0,0,.687-.618l.411-1.167.618.961a1.071,1.071,0,0,0,.892.481h1.167l-.755.961A.616.616,0,0,0,1580.983,937.984Z" transform="translate(-1534.066 -928.921)"/><path class="a" d="M1569.239,953.762a3.79,3.79,0,0,0,2.677-1.1h0a3.776,3.776,0,1,0-5.355,0A3.917,3.917,0,0,0,1569.239,953.762Zm-1.167-5.012a1.655,1.655,0,0,1,1.236-.48,1.974,1.974,0,0,1,1.236.48,1.558,1.558,0,0,1,.481,1.236,1.971,1.971,0,0,1-.481,1.235h0a1.788,1.788,0,0,1-2.4,0,1.655,1.655,0,0,1-.481-1.235A1.6,1.6,0,0,1,1568.071,948.749Z" transform="translate(-1531.797 -933.026)"/><path class="a" d="M1572.345,966.466a3.787,3.787,0,0,0,5.355,5.355h0a3.813,3.813,0,0,0,0-5.355A3.856,3.856,0,0,0,1572.345,966.466Zm3.914,3.914h0a1.789,1.789,0,0,1-2.4,0,1.652,1.652,0,0,1-.481-1.236,1.97,1.97,0,0,1,.481-1.235,1.653,1.653,0,0,1,1.235-.481,1.763,1.763,0,0,1,1.236.481,1.654,1.654,0,0,1,.48,1.235A2.045,2.045,0,0,1,1576.258,970.38Z" transform="translate(-1533.392 -938.315)"/><path class="a" d="M1524.079,950.8a1.173,1.173,0,0,0,.892.48h.138a1.042,1.042,0,0,0,.892-.687l.962-2.609,2.677-.755a1.147,1.147,0,0,0,.755-.824,1.026,1.026,0,0,0-.412-1.03l-2.129-1.579.206-2.746a1.04,1.04,0,0,0-.481-.962.932.932,0,0,0-1.1.069l-2.334,1.579-2.54-.961a.96.96,0,0,0-1.031.206.989.989,0,0,0-.275,1.03l.687,2.609-1.785,2.2a1.058,1.058,0,0,0,.755,1.716h2.747Zm-1.03-6.18-.343-1.236,1.167.412a.965.965,0,0,0,.962-.137l.961-.687-.069,1.167a1.109,1.109,0,0,0,.412.893l.961.687-1.235.343a1.032,1.032,0,0,0-.687.618l-.481,1.167-.618-.961a1.047,1.047,0,0,0-.824-.481h-1.167l.755-.961A.7.7,0,0,0,1523.049,944.617Z" transform="translate(-1518.976 -931.297)"/><path class="a" d="M1567,991.77a1.17,1.17,0,0,0-.687.893.921.921,0,0,0,.48.961l2.335,1.442.069,2.678a.976.976,0,0,0,.618.892.87.87,0,0,0,.412.069.961.961,0,0,0,.618-.206l2.2-1.785,2.746.687a1.031,1.031,0,0,0,1.031-.343,1.048,1.048,0,0,0,.206-1.1l-1.03-2.472,1.579-2.265a1.057,1.057,0,0,0,.069-1.1,1.1,1.1,0,0,0-.961-.55l-2.815.343-1.717-2.128a1.133,1.133,0,0,0-1.03-.343.875.875,0,0,0-.755.755l-.687,2.609Zm3.845.824a.9.9,0,0,0,.618-.687l.343-1.236.755.962a.9.9,0,0,0,.893.343l1.167-.069-.687.961a1.205,1.205,0,0,0-.138.962l.412,1.1-1.236-.343a.99.99,0,0,0-.892.206l-.962.824-.068-1.167a.954.954,0,0,0-.481-.824l-.961-.618Z" transform="translate(-1532.028 -944.395)"/></g></g></svg>