<svg xmlns="http://www.w3.org/2000/svg" width="42.555" height="42.555" viewBox="0 0 42.555 42.555"><defs><style>.a{fill:none;stroke:#fc6320;stroke-miterlimit:10;stroke-width:2px;}.b{fill:#fd824d;}</style></defs><g transform="translate(1 1)"><circle class="a" cx="20.277" cy="20.277" r="20.277"/><g transform="translate(11.846 10.255)"><g transform="translate(10.218 3.141)"><path class="b" d="M1559.845,450.5a.379.379,0,1,0,.378.379A.379.379,0,0,0,1559.845,450.5Z" transform="translate(-1559.466 -450.498)"/></g><g transform="translate(6.433 3.141)"><path class="b" d="M1554.619,450.5a.379.379,0,1,0,.379.379A.38.38,0,0,0,1554.619,450.5Z" transform="translate(-1554.24 -450.498)"/></g><path class="b" d="M1562.278,457.472a3.031,3.031,0,0,0,.487-1.623,2.63,2.63,0,0,0-.959-2.034,2.559,2.559,0,0,0,.2-.994,2.821,2.821,0,0,0-1.53-2.494,2.267,2.267,0,0,0-1.723-2.475,2.725,2.725,0,0,0-2.424-1.691,2.573,2.573,0,0,1-4.542,0,2.727,2.727,0,0,0-2.424,1.691,2.268,2.268,0,0,0-1.723,2.475,2.821,2.821,0,0,0-1.53,2.494,2.557,2.557,0,0,0,.2.994,2.627,2.627,0,0,0-.959,2.034,3.026,3.026,0,0,0,.487,1.623,2.612,2.612,0,0,0,.3,3.392,2.746,2.746,0,0,0,2.615,3.159h.035a7.339,7.339,0,0,1,7.913,1.514,3.035,3.035,0,0,0,2.614-1.514h.035a2.744,2.744,0,0,0,2.649-2.763,2.452,2.452,0,0,0-.034-.4,2.613,2.613,0,0,0,.3-3.392Zm-8.6-5.582a1.5,1.5,0,0,0-.757-.2.378.378,0,0,0,0,.757.758.758,0,0,1,.757.757v7.2a3.02,3.02,0,0,0-2.27-1.028.378.378,0,1,0,0,.757,2.273,2.273,0,0,1,2.27,2.27,2.36,2.36,0,0,1-2.27,2.384,2.277,2.277,0,0,1-2.055-1.32.378.378,0,0,0-.386-.217l-.08.01a1.975,1.975,0,0,1-1.962-2.436.377.377,0,0,0-.125-.379,1.883,1.883,0,0,1-.69-1.448,1.86,1.86,0,0,1,.278-.974,2.55,2.55,0,0,0,1.614.6.378.378,0,0,0,0-.757,1.989,1.989,0,0,1-1.892-2.005,1.881,1.881,0,0,1,.884-1.595.378.378,0,0,0,.127-.507,1.862,1.862,0,0,1-.254-.926,1.9,1.9,0,1,1,3.785,0,.378.378,0,1,0,.757,0,2.743,2.743,0,0,0-2.649-2.762,2.436,2.436,0,0,0-.377.03v-.03a1.514,1.514,0,0,1,2.585-1.071.378.378,0,0,0,.535-.535,2.254,2.254,0,0,0-1.255-.637,1.909,1.909,0,0,1,1.541-.9,2,2,0,0,1,1.892,2.006Zm6.434,6.721a2.551,2.551,0,0,0,1.614-.6,1.86,1.86,0,0,1,.278.974,1.885,1.885,0,0,1-.69,1.448.379.379,0,0,0-.126.379,1.846,1.846,0,0,1,.059.443,1.971,1.971,0,0,1-2.02,1.993l-.08-.01a.379.379,0,0,0-.386.217,2.276,2.276,0,0,1-2.054,1.32,2.361,2.361,0,0,1-2.271-2.384,2.273,2.273,0,0,1,2.271-2.27.378.378,0,0,0,0-.757,3.023,3.023,0,0,0-2.271,1.028v-7.2a.758.758,0,0,1,.757-.757.378.378,0,0,0,0-.757,1.5,1.5,0,0,0-.757.2v-2.966a2,2,0,0,1,1.892-2.006,1.911,1.911,0,0,1,1.542.9,2.254,2.254,0,0,0-1.255.637.378.378,0,1,0,.535.535,1.514,1.514,0,0,1,2.585,1.071v.03a2.435,2.435,0,0,0-.377-.03,2.743,2.743,0,0,0-2.649,2.762.378.378,0,1,0,.757,0,1.9,1.9,0,1,1,3.784,0,1.856,1.856,0,0,1-.253.926.38.38,0,0,0,.127.507,1.882,1.882,0,0,1,.884,1.595,1.989,1.989,0,0,1-1.892,2.005.378.378,0,1,0,0,.757Z" transform="translate(-1545.357 -446.161)"/><g transform="translate(3.027 6.282)"><path class="b" d="M1553.982,456.654a.378.378,0,0,0-.535-.03,1.9,1.9,0,0,1-3.153-1.411.379.379,0,0,0-.758,0,2.654,2.654,0,0,0,2.218,2.614,1.138,1.138,0,0,1-1.083.792.378.378,0,0,0,0,.757,1.9,1.9,0,0,0,1.858-1.536,2.644,2.644,0,0,0,1.422-.652A.379.379,0,0,0,1553.982,456.654Z" transform="translate(-1549.537 -454.836)"/></g><g transform="translate(3.027 14.721)"><path class="b" d="M1549.916,466.489a.378.378,0,1,0,0,.757,2,2,0,0,1,1.892,2.005.378.378,0,1,0,.757,0A2.744,2.744,0,0,0,1549.916,466.489Z" transform="translate(-1549.537 -466.489)"/></g><g transform="translate(3.421 11.694)"><path class="b" d="M1553.093,462.308a3.4,3.4,0,0,0-2.963,1.727.378.378,0,1,0,.658.373,2.644,2.644,0,0,1,2.3-1.343.378.378,0,1,0,0-.757Z" transform="translate(-1550.081 -462.308)"/></g><g transform="translate(9.839 6.282)"><path class="b" d="M1562.35,458.62a1.137,1.137,0,0,1-1.083-.792,2.653,2.653,0,0,0,2.218-2.614.378.378,0,0,0-.757,0,1.892,1.892,0,0,1-3.154,1.411.378.378,0,0,0-.5.564,2.643,2.643,0,0,0,1.422.652,1.9,1.9,0,0,0,1.858,1.536.378.378,0,0,0,0-.757Z" transform="translate(-1558.944 -454.836)"/></g><g transform="translate(11.353 14.721)"><path class="b" d="M1563.683,466.489a2.744,2.744,0,0,0-2.649,2.762.378.378,0,1,0,.757,0,2,2,0,0,1,1.892-2.005.378.378,0,0,0,0-.757Z" transform="translate(-1561.034 -466.489)"/></g><g transform="translate(10.596 11.694)"><path class="b" d="M1563.33,464.034a3.4,3.4,0,0,0-2.963-1.727.378.378,0,0,0,0,.757,2.644,2.644,0,0,1,2.305,1.343.378.378,0,0,0,.658-.373Z" transform="translate(-1559.989 -462.308)"/></g></g></g></svg>