<svg xmlns="http://www.w3.org/2000/svg" viewBox="0 0 42.003 42.003"><defs><style>.a{fill:#005699;}.b{fill:#fff;fill-rule:evenodd;}</style></defs><circle class="a" cx="21.002" cy="21.002" r="21.002"/><path class="b" d="M1356.507,71.506a5.7,5.7,0,1,1,5.7,5.711,5.711,5.711,0,0,1-5.7-5.711M1368.1,60.345h-11.778a5.292,5.292,0,0,0-5.279,5.279V77.4a5.3,5.3,0,0,0,5.279,5.279H1368.1a5.292,5.292,0,0,0,5.279-5.279V65.624A5.284,5.284,0,0,0,1368.1,60.345Zm-11.778,1.319H1368.1a3.963,3.963,0,0,1,3.959,3.959V77.4a3.964,3.964,0,0,1-3.959,3.959h-11.778a3.964,3.964,0,0,1-3.959-3.959V65.624A3.963,3.963,0,0,1,1356.323,61.664Zm12.95,1.665a1.159,1.159,0,1,0,1.159,1.159A1.158,1.158,0,0,0,1369.273,63.329Zm.135,8.177a7.2,7.2,0,1,0-7.2,7.2A7.2,7.2,0,0,0,1369.408,71.506Z" transform="translate(-1341.598 -50.681)"/></svg>
