<svg xmlns="http://www.w3.org/2000/svg" width="68.62" height="44.9" viewBox="0 0 68.62 44.9"><defs><style>.a{fill:#007ad2;}</style></defs><path class="a" d="M1657.627,210.249a6.268,6.268,0,0,0,2.033-4.659,6.354,6.354,0,1,0-12.708,0,6.269,6.269,0,0,0,2.033,4.659,11.465,11.465,0,0,0-7.032,9.149,25.688,25.688,0,0,0-5.421-2.372,11.743,11.743,0,0,0,5.76-10.166,11.86,11.86,0,1,0-17.96,10.166,19.517,19.517,0,0,0-5.421,2.372,11.465,11.465,0,0,0-7.032-9.149,6.268,6.268,0,0,0,2.033-4.659,6.354,6.354,0,1,0-12.708,0,6.268,6.268,0,0,0,2.033,4.659,11.505,11.505,0,0,0-7.116,10.589,1.271,1.271,0,1,0,2.541,0,8.9,8.9,0,0,1,17.791,0v.254a22.383,22.383,0,0,0-8.472,17.536,1.271,1.271,0,1,0,2.541,0,19.909,19.909,0,0,1,39.818,0,1.271,1.271,0,1,0,2.541,0,22.257,22.257,0,0,0-8.472-17.536v-.254a8.9,8.9,0,0,1,17.791,0,1.271,1.271,0,1,0,2.541,0A11.505,11.505,0,0,0,1657.627,210.249Zm-53.88-4.659a3.812,3.812,0,1,1,3.812,3.812A3.8,3.8,0,0,1,1603.747,205.59Zm17.367,1.27a9.319,9.319,0,1,1,9.319,9.319A9.293,9.293,0,0,1,1621.114,206.86Zm28.381-1.27a3.812,3.812,0,1,1,3.812,3.812A3.8,3.8,0,0,1,1649.495,205.59Z" transform="translate(-1596.123 -195)"/></svg>