<svg xmlns="http://www.w3.org/2000/svg" width="201.023" height="183.946" viewBox="0 0 201.023 183.946"><defs><style>.a{fill:#005699;}.b{opacity:0.3;}.c{fill:#fff;}</style></defs><g transform="translate(-839.372 -809.906)"><rect class="a" width="201.023" height="183.946" transform="translate(839.372 809.906)"/><g class="b" transform="translate(857.072 820.437)"><g transform="translate(65.454 0.804)"><path class="c" d="M1300.964,1137.955a.274.274,0,0,0,.254-.29v-3.146a.822.822,0,0,0-.763-.868h-9.26a.822.822,0,0,0-.763.868V1147.6a.821.821,0,0,0,.763.867h9.26a.821.821,0,0,0,.763-.867v-2.131a.257.257,0,1,0-.509,0v2.131a.273.273,0,0,1-.254.289h-9.26a.273.273,0,0,1-.254-.289v-13.077a.274.274,0,0,1,.254-.29h9.26a.274.274,0,0,1,.254.29v3.146A.274.274,0,0,0,1300.964,1137.955Z" transform="translate(-1290.432 -1133.651)"/><g transform="translate(5.139 12.672)"><path class="c" d="M1299.156,1151.149h-1.374a.292.292,0,0,0,0,.579h1.374a.292.292,0,0,0,0-.579Z" transform="translate(-1297.528 -1151.149)"/></g><g transform="translate(2.9 11.052)"><path class="c" d="M1298.3,1148.912h-3.612a.292.292,0,0,0,0,.579h3.612a.292.292,0,0,0,0-.579Z" transform="translate(-1294.437 -1148.912)"/></g><g transform="translate(2.9 9.432)"><path class="c" d="M1298.3,1146.675h-3.612a.292.292,0,0,0,0,.579h3.612a.292.292,0,0,0,0-.579Z" transform="translate(-1294.437 -1146.675)"/></g><g transform="translate(1.813 7.812)"><path class="c" d="M1293.37,1144.523a.233.233,0,0,0-.36,0,.313.313,0,0,0-.075.2.316.316,0,0,0,.075.2.233.233,0,0,0,.36,0,.316.316,0,0,0,.075-.2A.313.313,0,0,0,1293.37,1144.523Z" transform="translate(-1292.936 -1144.438)"/></g><g transform="translate(1.813 9.432)"><path class="c" d="M1293.37,1146.76a.233.233,0,0,0-.36,0,.318.318,0,0,0,0,.409.233.233,0,0,0,.36,0,.317.317,0,0,0,0-.409Z" transform="translate(-1292.936 -1146.675)"/></g><g transform="translate(1.813 11.052)"><path class="c" d="M1293.37,1149a.233.233,0,0,0-.36,0,.318.318,0,0,0,0,.409.233.233,0,0,0,.36,0,.317.317,0,0,0,0-.409Z" transform="translate(-1292.936 -1148.912)"/></g><g transform="translate(2.9 7.812)"><path class="c" d="M1298.3,1144.438h-3.612a.292.292,0,0,0,0,.579h3.612a.292.292,0,0,0,0-.579Z" transform="translate(-1294.437 -1144.438)"/></g><g transform="translate(2.9 6.114)"><path class="c" d="M1298.3,1142.094h-3.612a.292.292,0,0,0,0,.579h3.612a.292.292,0,0,0,0-.579Z" transform="translate(-1294.437 -1142.094)"/></g><g transform="translate(2.9 4.494)"><path class="c" d="M1298.3,1139.857h-3.612a.292.292,0,0,0,0,.579h3.612a.292.292,0,0,0,0-.579Z" transform="translate(-1294.437 -1139.857)"/></g><g transform="translate(1.813 2.874)"><path class="c" d="M1293.37,1137.7a.233.233,0,0,0-.36,0,.318.318,0,0,0,0,.409.233.233,0,0,0,.36,0,.317.317,0,0,0,0-.409Z" transform="translate(-1292.936 -1137.62)"/></g><g transform="translate(1.813 4.494)"><path class="c" d="M1293.37,1139.942a.233.233,0,0,0-.36,0,.318.318,0,0,0,0,.409.233.233,0,0,0,.36,0,.317.317,0,0,0,0-.409Z" transform="translate(-1292.936 -1139.857)"/></g><g transform="translate(1.813 6.114)"><path class="c" d="M1293.37,1142.179a.233.233,0,0,0-.36,0,.316.316,0,0,0-.075.2.313.313,0,0,0,.075.2.233.233,0,0,0,.36,0,.313.313,0,0,0,.075-.2A.316.316,0,0,0,1293.37,1142.179Z" transform="translate(-1292.936 -1142.094)"/></g><g transform="translate(2.9 2.874)"><path class="c" d="M1298.3,1137.62h-3.612a.292.292,0,0,0,0,.579h3.612a.292.292,0,0,0,0-.579Z" transform="translate(-1294.437 -1137.62)"/></g><g transform="translate(7.57 3.607)"><path class="c" d="M1305.805,1138.8a.95.95,0,0,0-.81-.122,1.092,1.092,0,0,0-.649.566l-3.2,6.306a.3.3,0,0,0-.033.113l-.226,2.295a.3.3,0,0,0,.126.283.23.23,0,0,0,.278-.018l1.635-1.37a.278.278,0,0,0,.069-.088l3.2-6.306A1.31,1.31,0,0,0,1305.805,1138.8Zm-4.348,8.566.117-1.2.736.484Zm1.224-1.14-.969-.637,2.569-5.061.969.637Zm3.074-6.056-.25.494-.97-.637.25-.494a.573.573,0,0,1,.34-.3.5.5,0,0,1,.424.064.624.624,0,0,1,.261.386A.712.712,0,0,1,1305.756,1140.166Z" transform="translate(-1300.885 -1138.632)"/></g></g><g transform="translate(129.367 79.106)"><g transform="translate(1.945 14.711)"><path class="c" d="M1381.861,1262.183a.263.263,0,0,0-.4,0,.357.357,0,0,0,0,.461.262.262,0,0,0,.4,0,.358.358,0,0,0,0-.461Z" transform="translate(-1381.372 -1262.088)"/></g><g transform="translate(12.948 5.859)"><path class="c" d="M1397.053,1249.96a.261.261,0,0,0-.4,0,.356.356,0,0,0,0,.46.261.261,0,0,0,.4,0,.357.357,0,0,0,0-.46Z" transform="translate(-1396.565 -1249.864)"/></g><path class="c" d="M1393.254,1241.87a.269.269,0,0,0-.2-.1h-7.04a.308.308,0,0,0-.286.325v.931l-2.712.827a.332.332,0,0,0-.2.4l1.406,5.967-1.216,1.383a.836.836,0,0,0-.709-.427h-2.747a.924.924,0,0,0-.858.977v5.3a.924.924,0,0,0,.858.976h2.748a.889.889,0,0,0,.833-.742l.34.338a1.345,1.345,0,0,0,.948.4h8.638a.308.308,0,0,0,.287-.325V1242.1A.348.348,0,0,0,1393.254,1241.87Zm-10.676,15.592a.308.308,0,0,1-.287.325h-2.747a.307.307,0,0,1-.286-.325v-5.3a.308.308,0,0,1,.286-.326h1.088v3.749a.288.288,0,1,0,.572,0v-3.749h1.087a.309.309,0,0,1,.287.326v5.3Zm.86-13.059,2.288-.7v1.206l-.192.059a.293.293,0,0,0-.173.151.362.362,0,0,0-.029.247.9.9,0,0,1-.545,1.073.294.294,0,0,0-.174.152.365.365,0,0,0-.029.248l1.116,4.7h-.574l-.3-1.317a.353.353,0,0,0-.048-.114Zm2.288,2v2.746l-.521-2.2A1.422,1.422,0,0,0,1385.725,1246.4Zm4.111,11.384h-5.423a.812.812,0,0,1-.572-.243l-.691-.686v-4.5l1.249-1.421.227,1.008a.3.3,0,0,0,.277.245h5.626a.459.459,0,0,1,0,.911h-2.883a.328.328,0,0,0,0,.651h3.779a.459.459,0,0,1,0,.911h-3.779a.328.328,0,0,0,0,.651h3.166a.459.459,0,0,1,0,.911h-3.166a.328.328,0,0,0,0,.651h2.19a.459.459,0,0,1,0,.911Zm2.929,0h-2.042a1.237,1.237,0,0,0,0-.911h.09a1.047,1.047,0,0,0,.973-1.107,1.225,1.225,0,0,0-.1-.5,1.1,1.1,0,0,0,.716-1.067,1.2,1.2,0,0,0-.192-.659v-4.125a.289.289,0,1,0-.572,0v3.7a.866.866,0,0,0-.208-.026h-.009a1.224,1.224,0,0,0,.087-.455,1.048,1.048,0,0,0-.973-1.107h-.46a1.578,1.578,0,0,0,.831-1.432,1.381,1.381,0,1,0-2.739,0,1.577,1.577,0,0,0,.831,1.432h-1.564v-6.189a1.451,1.451,0,0,0,1.026-1.167h2.152a1.451,1.451,0,0,0,1.026,1.167v1.012a.288.288,0,1,0,.572,0v-1.3a.308.308,0,0,0-.286-.325.829.829,0,0,1-.771-.876.308.308,0,0,0-.286-.326H1388.2a.308.308,0,0,0-.286.326.83.83,0,0,1-.771.876.307.307,0,0,0-.286.325v6.479h-.559v-9.113h6.467Zm-3.234-6.774a.914.914,0,1,1,.8-.907A.858.858,0,0,1,1389.531,1251.013Z" transform="translate(-1378.686 -1241.774)"/></g><g transform="translate(6.476)"><path class="c" d="M1209.737,1148.962a.8.8,0,0,1-.744-.846v-14.729a.75.75,0,1,1,1.487,0v14.729A.8.8,0,0,1,1209.737,1148.962Z" transform="translate(-1208.993 -1132.541)"/></g><g transform="translate(0 7.364)"><path class="c" d="M1213.746,1144.4h-12.952a.853.853,0,0,1,0-1.692h12.952a.853.853,0,0,1,0,1.692Z" transform="translate(-1200.051 -1142.71)"/></g><g transform="translate(129.473)"><g transform="translate(6.476)"><path class="c" d="M1388.519,1148.962a.8.8,0,0,1-.744-.846v-14.729a.75.75,0,1,1,1.487,0v14.729A.8.8,0,0,1,1388.519,1148.962Z" transform="translate(-1387.775 -1132.541)"/></g><g transform="translate(0 7.364)"><path class="c" d="M1392.528,1144.4h-12.951a.853.853,0,0,1,0-1.692h12.951a.853.853,0,0,1,0,1.692Z" transform="translate(-1378.833 -1142.71)"/></g></g><g transform="translate(64.747 80.542)"><g transform="translate(6.475)"><path class="c" d="M1299.141,1260.178a.8.8,0,0,1-.744-.846V1244.6a.75.75,0,1,1,1.488,0v14.729A.8.8,0,0,1,1299.141,1260.178Z" transform="translate(-1298.397 -1243.757)"/></g><g transform="translate(0 7.365)"><path class="c" d="M1303.151,1255.619H1290.2a.853.853,0,0,1,0-1.692h12.951a.853.853,0,0,1,0,1.692Z" transform="translate(-1289.456 -1253.927)"/></g></g></g><g transform="translate(858.931 891.016)"><path class="c" d="M1202.641,1242.547a.887.887,0,0,0,1.771-.106,10.222,10.222,0,0,1,2.845-7.754,9.6,9.6,0,0,1,6.922-2.916c1.97,0,4.346,1.3,6.865,3.748a.992.992,0,0,0,1.39,0,11.091,11.091,0,0,1,7.709-3.333h.067a8.257,8.257,0,0,1,5.988,2.5,10.289,10.289,0,0,1,0,14.224l-14.224,13.72a.394.394,0,0,1-.553,0l-9.737-9.4a.886.886,0,1,0-1.23,1.275h0l9.736,9.4a2.16,2.16,0,0,0,3.014,0l14.278-13.742a12.056,12.056,0,0,0,0-16.716,10,10,0,0,0-7.24-3.036,12.722,12.722,0,0,0-8.506,3.32c-2.7-2.483-5.236-3.731-7.555-3.731a11.357,11.357,0,0,0-8.188,3.457A12,12,0,0,0,1202.641,1242.547Z" transform="translate(-1202.618 -1230)"/><path class="c" d="M1209.175,1253.242a.885.885,0,0,0,.752-.443l1.443-2.341,1.961,3.124a.885.885,0,0,0,1.575-.151l2.576-6.638,2.377,9.413a.886.886,0,0,0,.757.664h.1a.885.885,0,0,0,.784-.474l2.952-5.656,1.128,2.013a.888.888,0,0,0,.771.443h4.111a.885.885,0,0,0,0-1.771h-3.585l-1.677-2.992a.884.884,0,0,0-.77-.443h0a.885.885,0,0,0-.806.513l-2.655,5.05-2.448-9.852a.885.885,0,0,0-1.682-.1l-2.952,7.568-1.771-2.837a.884.884,0,0,0-.748-.416h0a.884.884,0,0,0-.752.443l-1.934,3.134h-3.138a.885.885,0,1,0,0,1.77Z" transform="translate(-1203.181 -1233.596)"/></g></g></svg>