<svg width="200" height="200" xmlns="http://www.w3.org/2000/svg">
 <defs>
  <style>.a{fill:#fc6320;}.b{opacity:0.3;}.c{fill:#fff;}</style>
 </defs>
 <g>
  <title>background</title>
  <rect x="-1" y="-1" width="65.49207" height="65.49207" id="canvas_background" fill="none"/>
 </g>
 <g>
  <title>Layer 1</title>
  <rect class="a" width="200" height="199.883435" x="0" id="svg_2" y="0.11656" stroke="null"/>
  <g opacity="0.3" id="svg_17" stroke="null">
   <path class="c" d="m110.759498,31.691997a0.273,0.273 0 0 0 0.254,-0.29l0,-3.146a0.822,0.822 0 0 0 -0.763,-0.868l-9.255,0a0.822,0.822 0 0 0 -0.763,0.868l0,13.081a0.821,0.821 0 0 0 0.763,0.867l9.26,0a0.821,0.821 0 0 0 0.763,-0.867l0,-2.131a0.257,0.257 0 1 0 -0.509,0l0,2.131a0.273,0.273 0 0 1 -0.254,0.289l-9.26,0a0.273,0.273 0 0 1 -0.254,-0.289l0,-13.077a0.274,0.274 0 0 1 0.254,-0.29l9.26,0a0.274,0.274 0 0 1 0.254,0.29l0,3.146a0.274,0.274 0 0 0 0.25,0.286z" id="svg_18" stroke="null"/>
   <g id="svg_19" stroke="null">
    <path class="c" d="m106.994504,40.05995l-1.374,0a0.292,0.292 0 0 0 0,0.579l1.374,0a0.292,0.292 0 0 0 0,-0.579z" id="svg_20" stroke="null"/>
   </g>
   <g id="svg_21" stroke="null">
    <path class="c" d="m106.990508,38.440011l-3.612,0a0.292,0.292 0 0 0 0,0.579l3.612,0a0.292,0.292 0 0 0 0,-0.579z" id="svg_22" stroke="null"/>
   </g>
   <g id="svg_23" stroke="null">
    <path class="c" d="m106.990508,36.819949l-3.612,0a0.292,0.292 0 0 0 0,0.579l3.612,0a0.292,0.292 0 0 0 0,-0.579z" id="svg_24" stroke="null"/>
   </g>
   <g id="svg_25" stroke="null">
    <path class="c" d="m102.4755,35.28501a0.234,0.234 0 0 0 -0.36,0a0.313,0.313 0 0 0 -0.075,0.2a0.317,0.317 0 0 0 0.075,0.2a0.234,0.234 0 0 0 0.36,0a0.317,0.317 0 0 0 0.075,-0.2a0.313,0.313 0 0 0 -0.075,-0.2z" id="svg_26" stroke="null"/>
   </g>
   <g id="svg_27" stroke="null">
    <path class="c" d="m102.4755,36.904949a0.234,0.234 0 0 0 -0.36,0a0.318,0.318 0 0 0 0,0.409a0.234,0.234 0 0 0 0.36,0a0.318,0.318 0 0 0 0,-0.409z" id="svg_28" stroke="null"/>
   </g>
   <g id="svg_29" stroke="null">
    <path class="c" d="m102.4755,38.528011a0.234,0.234 0 0 0 -0.36,0a0.318,0.318 0 0 0 0,0.409a0.234,0.234 0 0 0 0.36,0a0.318,0.318 0 0 0 0,-0.409z" id="svg_30" stroke="null"/>
   </g>
   <g id="svg_31" stroke="null">
    <path class="c" d="m106.990508,35.20001l-3.612,0a0.292,0.292 0 0 0 0,0.579l3.612,0a0.292,0.292 0 0 0 0,-0.579z" id="svg_32" stroke="null"/>
   </g>
   <g id="svg_33" stroke="null">
    <path class="c" d="m106.990508,33.502004l-3.612,0a0.292,0.292 0 0 0 0,0.579l3.612,0a0.292,0.292 0 0 0 0,-0.579z" id="svg_34" stroke="null"/>
   </g>
   <g id="svg_35" stroke="null">
    <path class="c" d="m106.990508,31.881942l-3.612,0a0.292,0.292 0 0 0 0,0.579l3.612,0a0.292,0.292 0 0 0 0,-0.579z" id="svg_36" stroke="null"/>
   </g>
   <g id="svg_37" stroke="null">
    <path class="c" d="m102.4755,30.342003a0.234,0.234 0 0 0 -0.36,0a0.318,0.318 0 0 0 0,0.409a0.234,0.234 0 0 0 0.36,0a0.318,0.318 0 0 0 0,-0.409z" id="svg_38" stroke="null"/>
   </g>
   <g id="svg_39" stroke="null">
    <path class="c" d="m102.4755,31.966942a0.234,0.234 0 0 0 -0.36,0a0.318,0.318 0 0 0 0,0.409a0.233,0.233 0 0 0 0.36,0a0.318,0.318 0 0 0 0,-0.409z" id="svg_40" stroke="null"/>
   </g>
   <g id="svg_41" stroke="null">
    <path class="c" d="m102.4755,33.587004a0.234,0.234 0 0 0 -0.36,0a0.317,0.317 0 0 0 -0.075,0.2a0.313,0.313 0 0 0 0.075,0.2a0.234,0.234 0 0 0 0.36,0a0.313,0.313 0 0 0 0.075,-0.2a0.317,0.317 0 0 0 -0.075,-0.2z" id="svg_42" stroke="null"/>
   </g>
   <g id="svg_43" stroke="null">
    <path class="c" d="m106.990508,30.262003l-3.612,0a0.292,0.292 0 0 0 0,0.579l3.612,0a0.292,0.292 0 0 0 0,-0.579z" id="svg_44" stroke="null"/>
   </g>
   <g id="svg_45" stroke="null">
    <path class="c" d="m112.71751,31.16304a0.95,0.95 0 0 0 -0.81,-0.122a1.092,1.092 0 0 0 -0.649,0.566l-3.2,6.306a0.3,0.3 0 0 0 -0.033,0.113l-0.226,2.295a0.3,0.3 0 0 0 0.126,0.283a0.23,0.23 0 0 0 0.278,-0.018l1.635,-1.37a0.279,0.279 0 0 0 0.069,-0.088l3.2,-6.306a1.31,1.31 0 0 0 -0.39,-1.659zm-4.348,8.566l0.117,-1.2l0.736,0.484l-0.853,0.716zm1.225,-1.14l-0.969,-0.637l2.569,-5.061l0.969,0.637l-2.569,5.061zm3.074,-6.056l-0.251,0.494l-0.97,-0.637l0.251,-0.494a0.573,0.573 0 0 1 0.34,-0.3a0.5,0.5 0 0 1 0.424,0.064a0.624,0.624 0 0 1 0.261,0.386a0.711,0.711 0 0 1 -0.055,0.483l0,0.004z" id="svg_46" stroke="null"/>
   </g>
  </g>
  <g opacity="0.3" id="svg_47" stroke="null">
   <g id="svg_48" stroke="null">
    <path class="c" d="m166.575497,120.496983a0.263,0.263 0 0 0 -0.4,0a0.358,0.358 0 0 0 0,0.461a0.262,0.262 0 0 0 0.4,0a0.358,0.358 0 0 0 0,-0.461z" id="svg_49" stroke="null"/>
   </g>
   <g id="svg_50" stroke="null">
    <path class="c" d="m177.577503,111.645982a0.261,0.261 0 0 0 -0.4,0a0.357,0.357 0 0 0 0,0.46a0.261,0.261 0 0 0 0.4,0a0.357,0.357 0 0 0 0,-0.46z" id="svg_51" stroke="null"/>
   </g>
   <path class="c" d="m178.709501,105.786947a0.269,0.269 0 0 0 -0.2,-0.1l-7.04,0a0.308,0.308 0 0 0 -0.286,0.325l0,0.931l-2.712,0.827a0.332,0.332 0 0 0 -0.2,0.4l1.406,5.967l-1.222,1.386a0.836,0.836 0 0 0 -0.709,-0.427l-2.747,0a0.924,0.924 0 0 0 -0.858,0.977l0,5.3a0.924,0.924 0 0 0 0.858,0.976l2.748,0a0.889,0.889 0 0 0 0.833,-0.742l0.34,0.338a1.344,1.344 0 0 0 0.948,0.4l8.638,0a0.308,0.308 0 0 0 0.287,-0.325l0,-16.003a0.348,0.348 0 0 0 -0.084,-0.23zm-10.676,15.592a0.308,0.308 0 0 1 -0.287,0.325l-2.747,0a0.308,0.308 0 0 1 -0.286,-0.325l0,-5.3a0.308,0.308 0 0 1 0.286,-0.326l1.088,0l0,3.749a0.288,0.288 0 1 0 0.572,0l0,-3.749l1.087,0a0.309,0.309 0 0 1 0.287,0.326l0,5.3zm0.86,-13.059l2.288,-0.7l0,1.206l-0.192,0.059a0.293,0.293 0 0 0 -0.173,0.151a0.363,0.363 0 0 0 -0.029,0.247a0.9,0.9 0 0 1 -0.545,1.073a0.294,0.294 0 0 0 -0.174,0.152a0.365,0.365 0 0 0 -0.029,0.248l1.116,4.7l-0.574,0l-0.3,-1.317a0.356,0.356 0 0 0 -0.048,-0.114l-1.34,-5.705zm2.288,2l0,2.746l-0.521,-2.2a1.422,1.422 0 0 0 0.52,-0.549l0.001,0.003zm4.111,11.384l-5.424,0a0.812,0.812 0 0 1 -0.572,-0.243l-0.691,-0.686l0,-4.5l1.249,-1.421l0.227,1.008a0.3,0.3 0 0 0 0.277,0.245l5.626,0a0.459,0.459 0 0 1 0,0.911l-2.883,0a0.328,0.328 0 0 0 0,0.651l3.779,0a0.459,0.459 0 0 1 0,0.911l-3.779,0a0.328,0.328 0 0 0 0,0.651l3.166,0a0.459,0.459 0 0 1 0,0.911l-3.166,0a0.328,0.328 0 0 0 0,0.651l2.19,0a0.459,0.459 0 0 1 0,0.911l0.001,0zm2.929,0l-2.042,0a1.237,1.237 0 0 0 0,-0.911l0.09,0a1.047,1.047 0 0 0 0.973,-1.107a1.225,1.225 0 0 0 -0.1,-0.5a1.1,1.1 0 0 0 0.716,-1.067a1.2,1.2 0 0 0 -0.192,-0.659l0,-4.125a0.289,0.289 0 1 0 -0.572,0l0,3.7a0.869,0.869 0 0 0 -0.209,-0.026l-0.009,0a1.222,1.222 0 0 0 0.087,-0.455a1.047,1.047 0 0 0 -0.973,-1.107l-0.46,0a1.578,1.578 0 0 0 0.831,-1.432a1.381,1.381 0 1 0 -2.739,0a1.577,1.577 0 0 0 0.831,1.432l-1.564,0l0,-6.189a1.451,1.451 0 0 0 1.026,-1.167l2.152,0a1.451,1.451 0 0 0 1.026,1.167l0,1.012a0.288,0.288 0 1 0 0.572,0l0,-1.3a0.308,0.308 0 0 0 -0.286,-0.325a0.829,0.829 0 0 1 -0.771,-0.876a0.308,0.308 0 0 0 -0.286,-0.326l-2.667,0a0.308,0.308 0 0 0 -0.286,0.326a0.83,0.83 0 0 1 -0.771,0.876a0.307,0.307 0 0 0 -0.286,0.325l0,6.479l-0.557,0l0,-9.113l6.467,0l-0.001,15.368zm-3.234,-6.774a0.914,0.914 0 1 1 0.8,-0.907a0.858,0.858 0 0 1 -0.8,0.907z" id="svg_52" stroke="null"/>
  </g>
  <g opacity="0.3" id="svg_53" stroke="null">
   <g id="svg_54" stroke="null">
    <path class="c" d="m41.994513,43.005982a0.8,0.8 0 0 1 -0.744,-0.846l0,-14.729a0.75,0.75 0 1 1 1.488,0l0,14.729a0.8,0.8 0 0 1 -0.744,0.846z" id="svg_55" stroke="null"/>
   </g>
   <g id="svg_56" stroke="null">
    <path class="c" d="m48.469507,35.639037l-12.951,0a0.853,0.853 0 0 1 0,-1.692l12.952,0a0.853,0.853 0 0 1 0,1.692l-0.001,0z" id="svg_57" stroke="null"/>
   </g>
  </g>
  <g opacity="0.3" id="svg_58" stroke="null">
   <g id="svg_59" stroke="null">
    <path class="c" d="m171.467515,43.005982a0.8,0.8 0 0 1 -0.744,-0.846l0,-14.729a0.75,0.75 0 1 1 1.488,0l0,14.729a0.8,0.8 0 0 1 -0.744,0.846z" id="svg_60" stroke="null"/>
   </g>
   <g id="svg_61" stroke="null">
    <path class="c" d="m177.942501,35.639037l-12.951,0a0.853,0.853 0 0 1 0,-1.692l12.951,0a0.853,0.853 0 0 1 0,1.692z" id="svg_62" stroke="null"/>
   </g>
  </g>
  <g opacity="0.3" id="svg_63" stroke="null">
   <g id="svg_64" stroke="null">
    <path class="c" d="m106.740508,123.548042a0.8,0.8 0 0 1 -0.744,-0.846l0,-14.732a0.75,0.75 0 1 1 1.488,0l0,14.729a0.8,0.8 0 0 1 -0.744,0.849z" id="svg_65" stroke="null"/>
   </g>
   <g id="svg_66" stroke="null">
    <path class="c" d="m113.216517,116.183998l-12.951,0a0.853,0.853 0 0 1 0,-1.692l12.951,0a0.853,0.853 0 0 1 0,1.692z" id="svg_67" stroke="null"/>
   </g>
  </g>
  <path class="c" d="m46.687504,85.062981a15.727,15.727 0 0 0 -1.819,0.107a15.018,15.018 0 0 0 -5.7,27.922l0,2.027a5.009,5.009 0 0 0 5.009,5.009l5.009,0a5.009,5.009 0 0 0 5.009,-5.009l0,-2.027a15.019,15.019 0 0 0 -7.514,-28.029l0.006,0zm6.252,25.862l-1.249,0.724l0,3.47a2.508,2.508 0 0 1 -2.5,2.5l-5.009,0a2.509,2.509 0 0 1 -2.5,-2.5l0,-3.47l-1.249,-0.724a12.514,12.514 0 0 1 4.732,-23.267a13.064,13.064 0 0 1 1.527,-0.09a12.514,12.514 0 0 1 6.258,23.357l-0.01,0zm0,12.96a1.252,1.252 0 0 1 -1.251,1.252l-2.497,0a2.5,2.5 0 1 1 -5.009,0l-2.5,0a1.252,1.252 0 0 1 0,-2.5l10.019,0a1.251,1.251 0 0 1 1.253,1.251l-0.015,-0.003zm-23.794,-23.794a1.251,1.251 0 0 1 -1.251,1.252l-2.506,0a1.252,1.252 0 0 1 0,-2.5l2.5,0a1.252,1.252 0 0 1 1.252,1.251l0.005,-0.003zm40.074,0a1.251,1.251 0 0 1 -1.251,1.252l-2.497,0a1.252,1.252 0 0 1 0,-2.5l2.5,0a1.252,1.252 0 0 1 1.253,1.251l-0.005,-0.003zm-23.794,-18.784l0,-2.5a1.252,1.252 0 0 1 2.5,0l0,2.5a1.252,1.252 0 0 1 -2.5,0zm17.191,2.845a1.251,1.251 0 0 1 0,1.77l0,0l-1.771,1.771a1.252,1.252 0 0 1 -1.789,-1.753l0.018,-0.017l1.771,-1.771a1.251,1.251 0 0 1 1.771,0zm-30.106,3.541l-1.771,-1.771a1.252,1.252 0 0 1 1.771,-1.771l1.771,1.771a1.252,1.252 0 0 1 -1.753,1.789l-0.018,-0.018z" id="svg_73" stroke="null"/>
 </g>
</svg>