<svg xmlns="http://www.w3.org/2000/svg" width="201.023" height="183.946" viewBox="0 0 201.023 183.946"><defs><style>.a{fill:#00b8f9;}.b{opacity:0.3;}.c{opacity:0.54;}.d{fill:#fff;}.e{opacity:0.44;}.f{fill:none;}</style></defs><g transform="translate(-436.864 -809.906)"><rect class="a" width="201.023" height="183.946" transform="translate(436.864 809.906)"/><g class="b" transform="translate(461.503 820.135)"><g class="c" transform="translate(0 0.302)"><g transform="translate(6.476)"><path class="d" d="M663.519,1148.962a.8.8,0,0,1-.744-.846v-14.729a.75.75,0,1,1,1.487,0v14.729A.8.8,0,0,1,663.519,1148.962Z" transform="translate(-662.775 -1132.541)"/></g><g transform="translate(0 7.364)"><path class="d" d="M667.528,1144.4H654.577a.853.853,0,0,1,0-1.692h12.951a.853.853,0,0,1,0,1.692Z" transform="translate(-653.833 -1142.71)"/></g></g><g class="e" transform="translate(62.691)"><path class="d" d="M759.154,1142.555a.721.721,0,0,0-.823.089l-5.295,3.792a.387.387,0,0,0-.1.495.294.294,0,0,0,.435.112l5.295-3.792c.112-.08.173-.074.182-.069s.046.062.046.212a1.642,1.642,0,0,1-.564,1.162l-5.133,3.675c-.273.2-.522.25-.684.148a.863.863,0,0,1-.255-.737,3.658,3.658,0,0,1,1.275-2.628l5.844-4.185a.386.386,0,0,0,0-.607l-11.229-8.042a.282.282,0,0,0-.336,0l-5.915,4.237a4.163,4.163,0,0,0-1.5,3.088v.191a4.163,4.163,0,0,0,1.5,3.088l8.8,6.3a.294.294,0,0,0,.435-.112.389.389,0,0,0-.1-.495l-8.8-6.3a3.449,3.449,0,0,1-1.205-2.481v-.191a3.452,3.452,0,0,1,1.205-2.482l5.747-4.116,10.638,7.619-5.421,3.882a4.365,4.365,0,0,0-1.57,3.235,1.53,1.53,0,0,0,.581,1.365.915.915,0,0,0,.492.141,1.455,1.455,0,0,0,.833-.31l5.133-3.675a2.386,2.386,0,0,0,.859-1.769A.951.951,0,0,0,759.154,1142.555Z" transform="translate(-740.399 -1132.125)"/><g transform="translate(7.267 2.825)"><path class="d" d="M758.033,1141.96a.309.309,0,0,0,.267-.167.388.388,0,0,0-.1-.495l-7.285-5.217a.294.294,0,0,0-.435.112.389.389,0,0,0,.1.495l7.285,5.217A.293.293,0,0,0,758.033,1141.96Z" transform="translate(-750.433 -1136.026)"/></g><g transform="translate(10.214 6.799)"><path class="d" d="M757.9,1144.425a.309.309,0,0,0,.267-.168.389.389,0,0,0-.1-.495l-3.078-2.194a.294.294,0,0,0-.435.113.389.389,0,0,0,.1.495l3.078,2.194A.282.282,0,0,0,757.9,1144.425Z" transform="translate(-754.503 -1141.513)"/></g><g transform="translate(8.93 7.743)"><path class="d" d="M753.212,1142.871a.294.294,0,0,0-.435.115.388.388,0,0,0,.1.494l3.1,2.2a.286.286,0,0,0,.167.054.31.31,0,0,0,.268-.169.389.389,0,0,0-.1-.494Z" transform="translate(-752.73 -1142.817)"/></g><g transform="translate(3.336 3.763)"><path class="d" d="M747.774,1137.376l-2.62,1.877a.385.385,0,0,0,0,.608l3.125,2.21a.291.291,0,0,0,.167.054.286.286,0,0,0,.171-.057l.7-.511a.389.389,0,0,0,.093-.5.293.293,0,0,0-.436-.106l-.528.388-2.527-1.787,2.026-1.451,2.491,1.776-.29.213a.389.389,0,0,0-.093.5.293.293,0,0,0,.436.106l.706-.519a.386.386,0,0,0,0-.6l-3.078-2.2A.284.284,0,0,0,747.774,1137.376Z" transform="translate(-745.006 -1137.321)"/></g><g transform="translate(7.646 8.687)"><path class="d" d="M754.665,1146.878a.389.389,0,0,0-.1-.494l-3.125-2.209a.294.294,0,0,0-.435.115.389.389,0,0,0,.1.494l3.125,2.21a.286.286,0,0,0,.167.054A.309.309,0,0,0,754.665,1146.878Z" transform="translate(-750.956 -1144.12)"/></g><g transform="translate(2.202 6.687)"><path class="d" d="M743.488,1141.527a.388.388,0,0,0,.1.494l7.713,5.454a.286.286,0,0,0,.167.054.309.309,0,0,0,.268-.169.388.388,0,0,0-.1-.494l-7.713-5.454A.293.293,0,0,0,743.488,1141.527Z" transform="translate(-743.44 -1141.358)"/></g><g transform="translate(69.571 79.87)"><path class="d" d="M845.844,1244.288H844.6v-.492a.436.436,0,0,0-.406-.46H842.91a1.174,1.174,0,0,0-2.294,0H839.3a.435.435,0,0,0-.4.46v.492h-1.217a1.309,1.309,0,0,0-1.216,1.383v11.1a1.309,1.309,0,0,0,1.216,1.383h8.162a1.31,1.31,0,0,0,1.217-1.383v-11.1A1.31,1.31,0,0,0,845.844,1244.288Zm-6.135-.03h1.243a.436.436,0,0,0,.406-.461.409.409,0,1,1,.811,0,.436.436,0,0,0,.4.461h1.217v.492a.437.437,0,0,1-.406.461h-3.27a.437.437,0,0,1-.406-.461Zm6.541,12.511a.437.437,0,0,1-.406.461h-8.162a.437.437,0,0,1-.406-.461v-11.1a.436.436,0,0,1,.406-.461h1.286a1.239,1.239,0,0,0,1.146.922h3.27a1.239,1.239,0,0,0,1.146-.922h1.313a.436.436,0,0,1,.406.461Z" transform="translate(-836.466 -1242.413)"/><g transform="translate(1.621 7.869)"><path class="d" d="M841.859,1253.417a.371.371,0,0,0-.573-.005l-1.362,1.524-.526-.6a.372.372,0,0,0-.574,0,.506.506,0,0,0,0,.652l.811.923a.372.372,0,0,0,.571,0l1.649-1.844A.508.508,0,0,0,841.859,1253.417Z" transform="translate(-838.705 -1253.279)"/></g><g transform="translate(1.621 11.097)"><path class="d" d="M841.859,1257.874a.371.371,0,0,0-.573-.005l-1.362,1.524-.526-.6a.372.372,0,0,0-.574,0,.506.506,0,0,0,0,.652l.811.922a.371.371,0,0,0,.571,0l1.649-1.844A.507.507,0,0,0,841.859,1257.874Z" transform="translate(-838.705 -1257.736)"/></g><g transform="translate(1.621 4.642)"><path class="d" d="M841.019,1250.8l-.524-.6.524-.6a.506.506,0,0,0,0-.652.372.372,0,0,0-.574,0l-.524.6-.524-.6a.372.372,0,0,0-.574,0,.506.506,0,0,0,0,.652l.524.6-.524.6a.506.506,0,0,0,0,.652.372.372,0,0,0,.574,0l.524-.6.524.6a.372.372,0,0,0,.574,0A.506.506,0,0,0,841.019,1250.8Z" transform="translate(-838.705 -1248.822)"/></g><g transform="translate(5.703 5.564)"><path class="d" d="M847.206,1250.1h-2.46a.465.465,0,0,0,0,.922h2.46a.465.465,0,0,0,0-.922Z" transform="translate(-844.341 -1250.096)"/></g><g transform="translate(5.703 8.791)"><path class="d" d="M847.206,1254.552h-2.46a.465.465,0,0,0,0,.923h2.46a.465.465,0,0,0,0-.923Z" transform="translate(-844.341 -1254.552)"/></g><g transform="translate(5.703 12.019)"><path class="d" d="M847.206,1259.009h-2.46a.465.465,0,0,0,0,.923h2.46a.465.465,0,0,0,0-.923Z" transform="translate(-844.341 -1259.009)"/></g><g transform="translate(11.405 2.798)"><path class="d" d="M853.432,1246.276a1.31,1.31,0,0,0-1.217,1.383v7.377a.517.517,0,0,0,.021.144l.81,2.8a.393.393,0,0,0,.771,0l.81-2.8a.534.534,0,0,0,.02-.144v-7.377A1.309,1.309,0,0,0,853.432,1246.276Zm0,10.085-.335-1.155a.664.664,0,0,1,.669,0Zm.406-2.107a1.4,1.4,0,0,0-.406-.062,1.367,1.367,0,0,0-.406.062v-4.29h.811Zm0-5.212h-.811v-1.383a.409.409,0,1,1,.811,0Z" transform="translate(-852.215 -1246.276)"/></g></g><g transform="translate(69.271 0.302)"><g transform="translate(6.476)"><path class="d" d="M845.737,1148.962a.8.8,0,0,1-.744-.846v-14.729a.75.75,0,1,1,1.487,0v14.729A.8.8,0,0,1,845.737,1148.962Z" transform="translate(-844.993 -1132.541)"/></g><g transform="translate(0 7.364)"><path class="d" d="M849.746,1144.4H836.795a.853.853,0,0,1,0-1.692h12.951a.853.853,0,0,1,0,1.692Z" transform="translate(-836.051 -1142.71)"/></g></g><g transform="translate(2.344 80.844)"><g transform="translate(6.476)"><path class="d" d="M753.322,1260.178a.8.8,0,0,1-.744-.846V1244.6a.75.75,0,1,1,1.487,0v14.729A.8.8,0,0,1,753.322,1260.178Z" transform="translate(-752.578 -1243.757)"/></g><g transform="translate(0 7.365)"><path class="d" d="M757.331,1255.619H744.38a.853.853,0,0,1,0-1.692h12.951a.853.853,0,0,1,0,1.692Z" transform="translate(-743.636 -1253.927)"/></g></g></g></g><path class="f" d="M637,1210h68.8v68.8H637Z" transform="translate(-187.687 -333.468)"/><path class="d" d="M690,1229.334a.944.944,0,0,1-.465-.121,23.714,23.714,0,0,0-22.51,0,1.031,1.031,0,0,1-1.375-.4,1.019,1.019,0,0,1,.4-1.37,25.777,25.777,0,0,1,24.411-.02,1.019,1.019,0,0,1-.465,1.914Zm-28.917,10.578a1.053,1.053,0,0,1-.586-.181,1,1,0,0,1-.243-1.411,20.871,20.871,0,0,1,7.578-6.588,23.386,23.386,0,0,1,20.833-.02,20.956,20.956,0,0,1,7.578,6.548,1.014,1.014,0,0,1-1.657,1.169,18.95,18.95,0,0,0-6.85-5.924,21.347,21.347,0,0,0-18.995.02,19.155,19.155,0,0,0-6.87,5.964.882.882,0,0,1-.789.423Zm12.629,24.319a.947.947,0,0,1-.707-.3,20.374,20.374,0,0,1-4.062-5.318,17.848,17.848,0,0,1-2.121-8.745c0-5.984,5.132-10.86,11.437-10.86s11.437,4.876,11.437,10.86a1.01,1.01,0,0,1-2.021,0c0-4.876-4.224-8.845-9.416-8.845s-9.417,3.969-9.417,8.845a15.747,15.747,0,0,0,1.879,7.757,19.064,19.064,0,0,0,3.738,4.876,1.032,1.032,0,0,1,0,1.43,1.109,1.109,0,0,1-.748.3Zm14.489-3.727a10.906,10.906,0,0,1-6.264-1.793,10.719,10.719,0,0,1-4.809-8.845,1.01,1.01,0,0,1,2.021,0,8.659,8.659,0,0,0,3.92,7.172,8.877,8.877,0,0,0,5.133,1.431,13.451,13.451,0,0,0,2.1-.2,1.012,1.012,0,1,1,.344,1.995,13.853,13.853,0,0,1-2.445.242Zm-4.062,4.15a1.188,1.188,0,0,1-.263-.041,15.775,15.775,0,0,1-7.516-4.231,14.678,14.678,0,0,1-4.385-10.518,6.231,6.231,0,0,1,12.448,0,4.214,4.214,0,0,0,8.406,0c0-7.6-6.567-13.761-14.65-13.761a14.758,14.758,0,0,0-13.357,8.12,12.933,12.933,0,0,0-1.192,5.641,19.961,19.961,0,0,0,1.354,7.274.982.982,0,0,1-.587,1.289,1,1,0,0,1-1.293-.584,22.373,22.373,0,0,1-1.475-7.978,15.1,15.1,0,0,1,1.374-6.528,16.775,16.775,0,0,1,15.176-9.268c9.194,0,16.671,7.072,16.671,15.776a6.231,6.231,0,0,1-12.447,0,4.214,4.214,0,0,0-8.406,0,12.671,12.671,0,0,0,3.779,9.087,13.752,13.752,0,0,0,6.608,3.727,1,1,0,0,1,.708,1.229.986.986,0,0,1-.95.766Z" transform="translate(-194.05 -337.427)"/></g></svg>