<svg xmlns="http://www.w3.org/2000/svg" width="200" height="200" viewBox="0 0 201.023 183.946"><defs><style>.a{fill:#005699;}.b{opacity:0.3;}.c{opacity:0.54;}.d{fill:#fff;}.e{opacity:0.44;}</style></defs><g transform="translate(-236.526 -809.906)"><rect class="a" width="201.023" height="183.946" transform="translate(236.526 809.906)"/><g class="b" transform="translate(267.419 820.135)"><g class="c" transform="translate(0 0.302)"><g transform="translate(6.476)"><path class="d" d="M395.519,1148.962a.8.8,0,0,1-.744-.846v-14.729a.75.75,0,1,1,1.488,0v14.729A.8.8,0,0,1,395.519,1148.962Z" transform="translate(-394.775 -1132.541)"/></g><g transform="translate(0 7.364)"><path class="d" d="M399.528,1144.4H386.577a.853.853,0,0,1,0-1.692h12.951a.853.853,0,0,1,0,1.692Z" transform="translate(-385.833 -1142.71)"/></g></g><g class="e" transform="translate(62.691)"><path class="d" d="M491.154,1142.555a.721.721,0,0,0-.823.089l-5.295,3.792a.387.387,0,0,0-.1.495.294.294,0,0,0,.435.112l5.295-3.792c.112-.08.173-.074.182-.069s.046.062.046.212a1.642,1.642,0,0,1-.564,1.162l-5.133,3.675c-.273.2-.522.25-.684.148a.863.863,0,0,1-.255-.737,3.658,3.658,0,0,1,1.275-2.628l5.844-4.185a.386.386,0,0,0,0-.607l-11.229-8.042a.282.282,0,0,0-.336,0l-5.915,4.237a4.163,4.163,0,0,0-1.5,3.088v.191a4.162,4.162,0,0,0,1.5,3.088l8.8,6.3a.294.294,0,0,0,.435-.112.389.389,0,0,0-.1-.495l-8.8-6.3a3.449,3.449,0,0,1-1.205-2.481v-.191a3.452,3.452,0,0,1,1.205-2.482l5.747-4.116,10.638,7.619-5.421,3.882a4.365,4.365,0,0,0-1.57,3.235,1.53,1.53,0,0,0,.581,1.365.915.915,0,0,0,.492.141,1.455,1.455,0,0,0,.833-.31l5.133-3.675a2.386,2.386,0,0,0,.859-1.769A.951.951,0,0,0,491.154,1142.555Z" transform="translate(-472.399 -1132.125)"/><g transform="translate(7.267 2.825)"><path class="d" d="M490.033,1141.96a.309.309,0,0,0,.267-.167.388.388,0,0,0-.1-.495l-7.285-5.217a.294.294,0,0,0-.435.112.389.389,0,0,0,.1.495l7.285,5.217A.293.293,0,0,0,490.033,1141.96Z" transform="translate(-482.433 -1136.026)"/></g><g transform="translate(10.214 6.799)"><path class="d" d="M489.9,1144.425a.309.309,0,0,0,.267-.168.389.389,0,0,0-.1-.495l-3.078-2.194a.294.294,0,0,0-.435.113.389.389,0,0,0,.1.495l3.078,2.194A.282.282,0,0,0,489.9,1144.425Z" transform="translate(-486.503 -1141.513)"/></g><g transform="translate(8.93 7.743)"><path class="d" d="M485.212,1142.871a.294.294,0,0,0-.435.115.388.388,0,0,0,.1.494l3.1,2.2a.286.286,0,0,0,.167.054.31.31,0,0,0,.268-.169.389.389,0,0,0-.1-.494Z" transform="translate(-484.73 -1142.817)"/></g><g transform="translate(3.336 3.763)"><path class="d" d="M479.774,1137.376l-2.62,1.877a.385.385,0,0,0,0,.608l3.125,2.21a.291.291,0,0,0,.167.054.286.286,0,0,0,.171-.057l.7-.511a.389.389,0,0,0,.093-.5.293.293,0,0,0-.436-.106l-.528.388-2.527-1.787,2.026-1.451,2.491,1.776-.29.213a.389.389,0,0,0-.093.5.293.293,0,0,0,.436.106l.706-.519a.386.386,0,0,0,0-.6l-3.078-2.2A.284.284,0,0,0,479.774,1137.376Z" transform="translate(-477.006 -1137.321)"/></g><g transform="translate(7.646 8.687)"><path class="d" d="M486.665,1146.878a.389.389,0,0,0-.1-.494l-3.125-2.209a.294.294,0,0,0-.435.115.389.389,0,0,0,.1.494l3.125,2.21a.286.286,0,0,0,.167.054A.309.309,0,0,0,486.665,1146.878Z" transform="translate(-482.956 -1144.12)"/></g><g transform="translate(2.202 6.687)"><path class="d" d="M475.488,1141.527a.388.388,0,0,0,.1.494l7.713,5.454a.286.286,0,0,0,.167.054.309.309,0,0,0,.268-.169.389.389,0,0,0-.1-.494l-7.713-5.454A.293.293,0,0,0,475.488,1141.527Z" transform="translate(-475.44 -1141.358)"/></g><g transform="translate(69.571 79.87)"><path class="d" d="M577.844,1244.288H576.6v-.492a.436.436,0,0,0-.406-.46H574.91a1.174,1.174,0,0,0-2.294,0H571.3a.435.435,0,0,0-.4.46v.492h-1.217a1.309,1.309,0,0,0-1.216,1.383v11.1a1.309,1.309,0,0,0,1.216,1.383h8.162a1.31,1.31,0,0,0,1.217-1.383v-11.1A1.31,1.31,0,0,0,577.844,1244.288Zm-6.135-.03h1.243a.436.436,0,0,0,.406-.461.409.409,0,1,1,.811,0,.436.436,0,0,0,.4.461h1.217v.492a.437.437,0,0,1-.406.461h-3.271a.437.437,0,0,1-.406-.461Zm6.541,12.511a.437.437,0,0,1-.406.461h-8.162a.437.437,0,0,1-.406-.461v-11.1a.436.436,0,0,1,.406-.461h1.286a1.239,1.239,0,0,0,1.146.922h3.271a1.239,1.239,0,0,0,1.146-.922h1.313a.436.436,0,0,1,.406.461Z" transform="translate(-568.466 -1242.413)"/><g transform="translate(1.621 7.869)"><path class="d" d="M573.859,1253.417a.371.371,0,0,0-.573-.005l-1.362,1.524-.526-.6a.372.372,0,0,0-.574,0,.506.506,0,0,0,0,.652l.811.923a.372.372,0,0,0,.571,0l1.649-1.844A.508.508,0,0,0,573.859,1253.417Z" transform="translate(-570.705 -1253.279)"/></g><g transform="translate(1.621 11.097)"><path class="d" d="M573.859,1257.874a.371.371,0,0,0-.573-.005l-1.362,1.524-.526-.6a.372.372,0,0,0-.574,0,.506.506,0,0,0,0,.652l.811.922a.371.371,0,0,0,.571,0l1.649-1.844A.507.507,0,0,0,573.859,1257.874Z" transform="translate(-570.705 -1257.736)"/></g><g transform="translate(1.621 4.642)"><path class="d" d="M573.019,1250.8l-.524-.6.524-.6a.506.506,0,0,0,0-.652.372.372,0,0,0-.574,0l-.524.6-.524-.6a.372.372,0,0,0-.574,0,.506.506,0,0,0,0,.652l.524.6-.524.6a.506.506,0,0,0,0,.652.372.372,0,0,0,.574,0l.524-.6.524.6a.372.372,0,0,0,.574,0A.506.506,0,0,0,573.019,1250.8Z" transform="translate(-570.705 -1248.822)"/></g><g transform="translate(5.703 5.564)"><path class="d" d="M579.206,1250.1h-2.46a.465.465,0,0,0,0,.922h2.46a.465.465,0,0,0,0-.922Z" transform="translate(-576.341 -1250.096)"/></g><g transform="translate(5.703 8.791)"><path class="d" d="M579.206,1254.552h-2.46a.465.465,0,0,0,0,.923h2.46a.465.465,0,0,0,0-.923Z" transform="translate(-576.341 -1254.552)"/></g><g transform="translate(5.703 12.019)"><path class="d" d="M579.206,1259.009h-2.46a.465.465,0,0,0,0,.923h2.46a.465.465,0,0,0,0-.923Z" transform="translate(-576.341 -1259.009)"/></g><g transform="translate(11.405 2.798)"><path class="d" d="M585.432,1246.276a1.31,1.31,0,0,0-1.217,1.383v7.377a.517.517,0,0,0,.021.144l.81,2.8a.393.393,0,0,0,.771,0l.81-2.8a.534.534,0,0,0,.02-.144v-7.377A1.309,1.309,0,0,0,585.432,1246.276Zm0,10.085-.335-1.155a.664.664,0,0,1,.669,0Zm.406-2.107a1.4,1.4,0,0,0-.406-.062,1.367,1.367,0,0,0-.406.062v-4.29h.811Zm0-5.212h-.811v-1.383a.409.409,0,1,1,.811,0Z" transform="translate(-584.215 -1246.276)"/></g></g><g transform="translate(69.271 0.302)"><g transform="translate(6.476)"><path class="d" d="M577.737,1148.962a.8.8,0,0,1-.744-.846v-14.729a.75.75,0,1,1,1.487,0v14.729A.8.8,0,0,1,577.737,1148.962Z" transform="translate(-576.993 -1132.541)"/></g><g transform="translate(0 7.364)"><path class="d" d="M581.746,1144.4H568.795a.853.853,0,0,1,0-1.692h12.952a.853.853,0,0,1,0,1.692Z" transform="translate(-568.051 -1142.71)"/></g></g><g transform="translate(2.344 80.844)"><g transform="translate(6.476)"><path class="d" d="M485.322,1260.178a.8.8,0,0,1-.744-.846V1244.6a.75.75,0,1,1,1.487,0v14.729A.8.8,0,0,1,485.322,1260.178Z" transform="translate(-484.578 -1243.757)"/></g><g transform="translate(0 7.365)"><path class="d" d="M489.331,1255.619H476.38a.853.853,0,0,1,0-1.692h12.951a.853.853,0,0,1,0,1.692Z" transform="translate(-475.636 -1253.927)"/></g></g></g></g><path class="d" d="M400.613,1251.513a9.415,9.415,0,1,1,9.415-9.415A9.442,9.442,0,0,1,400.613,1251.513Zm0-16.222a6.807,6.807,0,1,0,6.807,6.807A6.8,6.8,0,0,0,400.613,1235.291Zm-20.06,25.926a1.339,1.339,0,0,0,.072-1.81,26.325,26.325,0,0,1,.217-34.761,1.337,1.337,0,0,0,0-1.811,1.315,1.315,0,0,0-1.014-.434,1.43,1.43,0,0,0-1.014.434,29.161,29.161,0,0,0-.217,38.382,1.215,1.215,0,0,0,1.014.434A1.168,1.168,0,0,0,380.552,1261.217Zm42.221-.217a29.109,29.109,0,0,0-.29-38.093,1.215,1.215,0,0,0-1.014-.435,1.167,1.167,0,0,0-.941.435,1.431,1.431,0,0,0-.072,1.883,26.383,26.383,0,0,1,.217,34.472,1.337,1.337,0,0,0,.072,1.811,1.275,1.275,0,0,0,.941.434A1.3,1.3,0,0,0,422.773,1261Zm-6.952-7.1a19.156,19.156,0,0,0-.29-23.754,1.54,1.54,0,0,0-1.086-.507,1.167,1.167,0,0,0-.941.435,1.332,1.332,0,0,0-.145,1.738,16.547,16.547,0,0,1,.217,20.567,1.332,1.332,0,0,0,.145,1.738,1.275,1.275,0,0,0,.941.435A1.829,1.829,0,0,0,415.821,1253.9Zm-28.316.217a1.425,1.425,0,0,0,.145-1.738,16.5,16.5,0,0,1,.217-20.712,1.256,1.256,0,0,0-.145-1.738,1.275,1.275,0,0,0-.941-.435,1.54,1.54,0,0,0-1.086.507,19.178,19.178,0,0,0-.217,24.043,1.3,1.3,0,0,0,1.086.507A1.275,1.275,0,0,0,387.5,1254.12Z" transform="translate(-114.461 -336.888)"/></g></svg>
